<svg width="54" height="64" viewBox="0 0 54 64" fill="none" xmlns="http://www.w3.org/2000/svg">
<g clip-path="url(#clip0_8_555)">
<path d="M26.3971 63.8477C26.5882 63.941 26.7928 63.989 27 63.989L26.9973 63.9863C27.1669 63.9863 27.3391 63.9543 27.5006 63.8903L28.6876 63.4183C34.6037 61.0583 53.9078 51.8077 53.9078 31.813L53.9159 17.557C53.9159 12.3783 50.581 7.79966 45.615 6.16766L27.4226 0.191657C27.1507 0.100991 26.852 0.100991 26.5774 0.191657L8.38229 6.17032C3.4163 7.79966 0.0814253 12.3783 0.0814253 17.5597L0.0760422 31.8157C0.0760422 49.4397 19.3478 60.3543 25.2532 63.2823L26.3971 63.8477Z" fill="#030303"/>
<mask id="mask0_8_555" style="mask-type:alpha" maskUnits="userSpaceOnUse" x="0" y="0" width="54" height="64">
<path d="M26.3971 63.8477C26.5882 63.941 26.7928 63.989 27 63.989L26.9973 63.9863C27.1669 63.9863 27.3391 63.9543 27.5006 63.8903L28.6876 63.4183C34.6037 61.0583 53.9078 51.8077 53.9078 31.813L53.9159 17.557C53.9159 12.3783 50.581 7.79966 45.615 6.16766L27.4226 0.191657C27.1507 0.100991 26.852 0.100991 26.5774 0.191657L8.38229 6.17032C3.4163 7.79966 0.0814253 12.3783 0.0814253 17.5597L0.0760422 31.8157C0.0760422 49.4397 19.3478 60.3543 25.2532 63.2823L26.3971 63.8477Z" fill="#030303"/>
</mask>
<g mask="url(#mask0_8_555)">
<path d="M32.1042 26.8031C32.1042 26.8031 30.7794 26.1278 29.6562 26.1729C28.5329 26.218 28.3146 26.3621 27.3508 26.308C26.387 26.254 23.9864 25.8035 23.6955 25.6054C23.4046 25.4072 22.859 24.2902 22.1134 23.5514C21.3679 22.8127 19.1311 20.5111 18.5446 19.4165L17.4126 20.0246C17.4126 20.0246 18.5173 22.2002 19.472 23.7947C20.4268 25.3892 20.8632 26.1459 21.3815 26.6999C21.8998 27.2539 22.0498 27.5377 22.4999 27.7133C22.95 27.889 24.5185 28.2809 25.9233 28.6187C27.3281 28.9565 28.8693 29.5511 28.8693 29.5511L32.1042 26.8031Z" fill="white"/>
<path d="M29.0681 29.3822C28.6768 28.9065 27.5676 27.5687 27.2326 27.2809C26.94 27.0297 27.3727 28.3467 27.6431 29.1178C28.3514 29.3514 28.8693 29.551 28.8693 29.551L29.0681 29.3822Z" fill="white"/>
<path d="M23.6257 25.5448L23.6252 25.5449C23.6252 25.5449 24.6846 26.9837 24.7584 26.9027C24.8218 26.8329 24.6893 26.2442 24.5297 25.857C24.1096 25.7613 23.7902 25.67 23.6955 25.6054C23.6738 25.5906 23.6503 25.5691 23.6257 25.5448Z" fill="white"/>
<path d="M27.5893 41.0098C27.5893 41.0098 23.2499 51.6848 23.0044 52.7388C22.7589 53.7928 22.2406 54.7227 22.3225 55.2847C22.4043 55.8467 22.568 57.9789 22.568 57.9789H25.7819C25.7819 57.9789 25.7323 56.7767 25.4959 56.1991C25.2594 55.6215 25.2413 55.4162 25.3322 55.0594C25.4231 54.7027 26.4517 52.955 27.8923 51.4416C29.3329 49.9282 30.2467 47.9013 31.3311 46.6311C32.4154 45.3609 33.1849 44.6853 32.8274 42.9016C32.47 41.1179 29.5282 37.1722 27.5893 41.0098Z" fill="white"/>
<path d="M30.9834 47.0713L30.8263 39.8662C29.9577 39.2346 28.9428 39.1058 28.0594 40.2497C27.2514 41.7965 26.1521 44.2666 25.7047 46.9559C25.1969 50.0096 25.2962 52.6664 25.5387 54.6106C25.9198 53.9092 26.7839 52.6065 27.8925 51.4418C29.1766 50.0925 30.0424 48.3367 30.9834 47.0713Z" fill="white"/>
<path d="M28.4814 38.3776C28.4814 38.3776 26.3705 42.5098 26.1282 47.0456C25.782 53.5225 27.8924 57.9789 27.8924 57.9789H27.9836H32.9149L30.2877 38.3776H28.4814Z" fill="white"/>
<path d="M28.7147 36.7849C28.7147 36.7849 27.9088 41.0421 28.2118 46.6066C28.5147 52.1713 31.0242 57.9789 31.0242 57.9789H39.5283L30.8329 36.9095L28.7147 36.7849Z" fill="white"/>
<path d="M28.7147 36.7849C28.7147 36.7849 28.2529 39.0876 29.5512 44.6172C31.179 51.5497 36.4253 57.9789 36.4253 57.9789H45.3179L30.8329 36.7849H28.7147Z" fill="white"/>
<path d="M28.9281 36.531C28.9281 36.531 28.6578 41.021 32.0233 46.4205C35.3887 51.8199 43.0538 57.9789 43.0538 57.9789H57.2383C57.2383 57.9789 55.5744 54.9819 52.2737 54.4954C48.9731 54.009 47.9638 53.4415 47.3364 52.2794C46.7091 51.1173 46.4636 49.5038 43.5175 48.4728C40.5715 47.4418 38.8257 46.0994 38.2802 43.7843C37.7346 41.4692 36.8504 37.6531 34.9442 36.7038L28.9281 36.531Z" fill="white"/>
<path d="M36.9655 39.3465C36.4584 38.149 35.8059 37.1332 34.9442 36.7039L28.9281 36.531C28.9281 36.531 28.9195 36.6771 28.9247 36.9468C29.7933 37.0661 32.4717 37.4941 34.8375 38.4965C35.7619 38.8882 36.4525 39.1588 36.9655 39.3465Z" fill="white"/>
<path d="M28.7875 36.0101C28.7875 36.0101 28.6965 36.2624 28.7147 36.7849C28.7147 36.7849 32.2974 36.4665 35.3343 36.9094V36.4598C35.3343 36.4598 31.3879 35.7128 28.7875 36.0101Z" fill="white"/>
<path d="M61.1877 15.6721C60.8002 15.6845 60.3936 15.7147 59.9716 15.767C59.2104 15.8591 58.4051 16.0274 57.5778 16.2565C56.7499 16.4848 55.9017 16.7782 55.0482 17.1202C53.338 17.8001 51.6096 18.6719 49.9086 19.5568C48.2079 20.4412 46.5315 21.3443 44.9174 22.0705C44.1109 22.4339 43.32 22.7526 42.5565 23.0005C42.1751 23.1264 41.7998 23.228 41.4351 23.3174C41.0695 23.3975 40.7145 23.4712 40.3714 23.5088C39.6857 23.5998 39.0531 23.5835 38.5047 23.5044C37.9556 23.4246 37.4931 23.272 37.1303 23.1087C37.0375 23.0721 36.9542 23.0278 36.8755 22.9867C36.7976 22.945 36.7198 22.9103 36.6556 22.8702C36.5258 22.7886 36.4156 22.7304 36.324 22.6643C36.1413 22.535 36.0439 22.466 36.0439 22.466L35.7698 22.8264C35.7698 22.8264 35.8636 22.9002 36.0395 23.0386C36.126 23.1081 36.2554 23.189 36.396 23.2864C36.4673 23.3357 36.5476 23.3768 36.6314 23.4273C36.7154 23.4766 36.8047 23.5295 36.9044 23.5752C37.294 23.7749 37.798 23.9699 38.3999 24.0887C39.0004 24.2071 39.696 24.2582 40.4396 24.1975C40.813 24.175 41.1954 24.1161 41.5896 24.0499C41.9813 23.9751 42.3841 23.887 42.7904 23.7754C43.6043 23.5557 44.4404 23.2662 45.287 22.9351C46.9816 22.273 48.7191 21.4463 50.4544 20.6527C52.1883 19.8587 53.923 19.0932 55.5804 18.5299C56.4079 18.2456 57.215 18.0122 57.9836 17.8415C58.7518 17.6698 59.4812 17.5563 60.1503 17.5099C60.5155 17.4834 60.8617 17.4751 61.1876 17.4805V15.6721H61.1877Z" fill="white"/>
<path d="M61.1877 11.3542C60.5549 11.4428 59.8528 11.5926 59.1139 11.8203C58.3682 12.0474 57.5894 12.3587 56.8001 12.7386C56.0094 13.1168 55.2114 13.5691 54.4159 14.0706C53.6189 14.5706 52.8287 15.1253 52.0414 15.7023C51.2562 16.2814 50.4755 16.8853 49.7021 17.492C48.1543 18.7039 46.6277 19.9254 45.1136 20.9426C44.3579 21.4525 43.6044 21.9085 42.8636 22.288C42.4934 22.4787 42.1249 22.6456 41.7639 22.796C41.4007 22.9398 41.0459 23.0719 40.6972 23.1703C40.3502 23.2761 40.0104 23.3485 39.6856 23.4103C39.3596 23.4627 39.0477 23.5019 38.7531 23.516C38.1636 23.5481 37.6467 23.5074 37.226 23.444C36.8053 23.3733 36.4831 23.2926 36.2625 23.2262C36.0423 23.1574 35.9248 23.1206 35.9248 23.1206L35.8892 23.2228C35.8892 23.2228 36.0046 23.2656 36.2208 23.3459C36.4378 23.424 36.7688 23.5258 37.1934 23.6198C37.6204 23.7073 38.1496 23.7772 38.7605 23.7761C39.066 23.7773 39.3904 23.754 39.7316 23.7171C40.0708 23.6711 40.4278 23.6141 40.7927 23.5234C41.1597 23.4402 41.5334 23.3232 41.9171 23.194C42.2981 23.0584 42.6878 22.9059 43.0789 22.7297C43.862 22.3792 44.6591 21.9521 45.4567 21.473C47.0548 20.5168 48.6608 19.3644 50.2664 18.2387C51.0689 17.6747 51.8725 17.1184 52.6724 16.5911C53.4735 16.0666 54.2697 15.5683 55.0582 15.1299C55.8456 14.6895 56.6222 14.3025 57.3745 13.9903C58.126 13.6762 58.8505 13.4305 59.5277 13.2629C60.1248 13.1128 60.683 13.0187 61.1877 12.9659V11.3542Z" fill="white"/>
<path d="M61.1877 40.8256C61.0924 40.7382 60.9954 40.6511 60.8952 40.5639C60.1949 39.9494 59.3614 39.3538 58.4141 38.8454C58.1805 38.7123 57.9313 38.6018 57.6847 38.4798C57.5587 38.4251 57.4318 38.37 57.3042 38.3147C57.2404 38.2874 57.1762 38.26 57.112 38.2326L56.916 38.1578C56.3943 37.9508 55.8487 37.7833 55.2927 37.6351C54.179 37.3416 53.018 37.1622 51.853 37.0384C50.6868 36.9134 49.5136 36.8413 48.3515 36.7612C48.0613 36.7409 47.7709 36.7204 47.4809 36.7L47.0498 36.667L46.6215 36.6318C46.0527 36.5781 45.4877 36.5167 44.9323 36.4361C44.3775 36.3532 43.83 36.2588 43.2979 36.1393C42.7662 36.0183 42.2482 35.8774 41.7497 35.7124C41.2536 35.5426 40.7782 35.3478 40.3298 35.1268C39.8797 34.9082 39.4668 34.6496 39.0829 34.3752C38.6975 34.1018 38.3544 33.7955 38.0466 33.4764C37.7337 33.1612 37.4719 32.8191 37.2336 32.4815C36.7677 31.7972 36.4388 31.1 36.2018 30.4605C36.1723 30.3804 36.1404 30.3027 36.1143 30.2242C36.089 30.1454 36.064 30.0679 36.0394 29.9918C35.9905 29.8396 35.941 29.6933 35.905 29.5488C35.8662 29.4053 35.8287 29.2675 35.7931 29.136C35.7631 29.0028 35.7345 28.8755 35.7074 28.7548C35.6488 28.5133 35.6162 28.2973 35.5803 28.1091C35.5435 27.9232 35.5212 27.7566 35.5025 27.622C35.4644 27.3536 35.4442 27.2102 35.4442 27.2102L34.8372 27.2824C34.8372 27.2824 34.8518 27.4263 34.8786 27.6961C34.8917 27.8308 34.907 27.9964 34.9376 28.198C34.967 28.3977 34.993 28.6301 35.0433 28.8833C35.0665 29.0106 35.0908 29.1448 35.1165 29.2855C35.1482 29.4254 35.1816 29.5718 35.2162 29.7243C35.2481 29.8776 35.2937 30.0347 35.3389 30.1981C35.3616 30.2799 35.3848 30.3631 35.4083 30.4477C35.4327 30.5323 35.4631 30.6168 35.491 30.7034C35.7158 31.3954 36.0386 32.1646 36.5213 32.9402C36.7683 33.3235 37.0446 33.7153 37.3788 34.0821C37.7078 34.4525 38.0791 34.8114 38.4965 35.1345C38.9124 35.4588 39.3627 35.7654 39.8485 36.0267C40.333 36.2909 40.8449 36.525 41.3757 36.7309C41.9077 36.9314 42.4572 37.1051 43.0179 37.2566C43.5788 37.4068 44.151 37.5294 44.7288 37.6396C45.3067 37.7474 45.8905 37.835 46.4768 37.9143L46.9169 37.9685L47.3556 38.0201C47.6464 38.0525 47.9374 38.0848 48.2283 38.117C49.3917 38.2443 50.5461 38.3629 51.66 38.5283C52.7738 38.6924 53.8467 38.9056 54.8381 39.2108C55.3327 39.3646 55.8108 39.5327 56.2595 39.7327L56.4284 39.805L56.5928 39.8837C56.7018 39.9361 56.8102 39.9885 56.9179 40.0403C57.1267 40.1558 57.339 40.2587 57.5353 40.3825C58.3339 40.8544 59.0281 41.3934 59.6159 41.9537C60.206 42.5113 60.6989 43.0786 61.1056 43.609C61.1333 43.6443 61.1601 43.6785 61.1874 43.7133V40.8256H61.1877Z" fill="white"/>
<path d="M33.5896 23.6778C33.5896 23.6778 33.7883 33.8392 42.8445 35.3166C51.9008 36.7941 54.265 33.713 61.1877 37.6465V24.2983C61.1877 24.2983 55.4653 23.4617 46.8454 25.1192C38.2256 26.7767 33.5896 23.6778 33.5896 23.6778Z" fill="white"/>
<path d="M37.4618 36.2128C37.4618 36.2128 36.7935 33.5913 36.1934 32.8346C35.5933 32.0779 34.6633 33.6319 34.9442 34.5237C35.225 35.4156 36.8208 36.2804 37.4618 36.2128Z" fill="white"/>
<path d="M31.3243 24.1595C31.3243 24.1595 31.9244 24.5514 32.1835 25.281C32.4427 26.0107 32.5654 26.4296 32.3609 26.4972C32.1563 26.5647 31.7607 26.6053 31.5425 26.7539C31.3243 26.9026 29.1284 28.4565 28.4601 29.8348C27.7918 31.2131 28.5419 34.4156 29.8786 35.2399C31.2152 36.0642 34.4749 35.9831 35.0477 35.2399C35.6206 34.4967 35.6206 33.8886 36.4662 33.0779C37.3118 32.2671 37.7619 32.159 38.4166 31.7536C39.0712 31.3482 40.0941 29.7943 39.1394 28.5376C38.1847 27.2809 37.38 27.335 36.698 26.9836C36.0161 26.6323 35.354 25.7945 34.8803 24.7811C34.4067 23.7676 33.8701 22.6461 33.8701 22.6461L31.3243 24.1595Z" fill="white"/>
<path d="M37.7527 31.0105L36.7981 31.1456C36.7981 31.1456 35.7978 31.0645 35.325 32.4608C35.0434 33.2925 35.149 34.2552 35.2803 34.8977C35.6405 34.3004 35.7538 33.7608 36.4662 33.0779C37.3118 32.2671 37.7619 32.159 38.4166 31.7536C38.478 31.7156 38.5427 31.6673 38.6087 31.6104L37.7527 31.0105Z" fill="white"/>
<path d="M44.5026 45.6695L44.4059 46.2195L37.6276 45.3281L37.8193 44.2381L44.5026 45.6695Z" fill="white"/>
<path d="M21.2874 42.6285L21.287 42.6284L35.1995 45.8592C36.0171 45.3202 36.7652 45.4408 36.7775 45.4427C36.9393 45.4707 37.0286 45.486 37.0286 45.486L37.1691 44.6872L15.7986 40.9998C15.7986 40.9998 17.4602 41.7825 21.2874 42.6285Z" fill="white"/>
<path d="M21.5189 41.3119H21.5184L35.7144 42.9314C36.2996 43.7125 37.0447 43.8497 37.0572 43.852C37.219 43.8798 37.3082 43.8952 37.3082 43.8952L37.1679 44.694L15.7974 41.0063C15.7974 41.0063 17.6285 40.8262 21.5189 41.3119Z" fill="white"/>
<path d="M37.3082 43.8954C37.3082 43.8954 37.2191 43.8798 37.0572 43.8521C37.0517 43.8513 36.9032 43.8236 36.6885 43.7261C36.5182 43.7025 36.374 43.5959 36.2615 43.4746C36.135 43.382 36.0042 43.267 35.8765 43.126L34.07 44.1526L35.4234 45.7279C35.5796 45.6449 35.7304 45.5841 35.8715 45.5403C36.0266 45.455 36.2126 45.3927 36.3939 45.4319C36.3989 45.433 36.4043 45.4352 36.4092 45.4363C36.6316 45.4196 36.7722 45.4417 36.7775 45.4428C36.9393 45.4708 37.0285 45.4862 37.0285 45.4862L37.1678 44.6941L37.1691 44.6873L37.3082 43.8954Z" fill="white"/>
<path d="M36.9737 42.2002C37.4161 42.1212 37.6826 42.3959 37.6485 42.591C37.6143 42.7861 37.5486 43.1591 37.4892 43.4962C37.4299 43.8333 36.8737 44.0625 36.5932 44.0265C36.3125 43.9904 36.1416 43.6017 36.1416 43.6017L34.9156 44.2984L35.8317 45.3645C35.8317 45.3645 36.125 45.0562 36.4015 45.1162C36.6778 45.1762 37.1232 45.5784 37.0639 45.9156C37.0044 46.2527 36.9389 46.6255 36.9046 46.8207C36.8703 47.0161 36.5257 47.1851 36.1363 46.9626C36.1363 46.9626 36.3528 47.8594 37.2486 48.0141L37.7567 47.6445C37.7567 47.6445 37.4023 47.2452 37.4741 46.8368C37.5459 46.4285 37.9432 45.9793 38.1408 44.8551C38.3384 43.7306 38.1177 43.1748 38.1896 42.7665C38.2614 42.3582 38.731 42.1012 38.731 42.1012L38.3791 41.5833C37.4835 41.4286 36.9737 42.2002 36.9737 42.2002Z" fill="white"/>
<path d="M37.3178 44.2128C37.5885 44.2597 37.7699 44.5148 37.7226 44.7829C37.6754 45.0508 37.418 45.2306 37.1473 45.1837C36.8768 45.137 36.6953 44.8819 36.7427 44.6139C36.7898 44.3457 37.0474 44.1663 37.3178 44.2128Z" fill="white"/>
<path d="M44.0597 45.5749L44.0081 45.8677L43.9567 46.1606C44.4808 46.251 44.7208 46.7754 44.7208 46.7754L45.9295 46.1993L44.9885 45.2522C44.9885 45.2522 44.5838 45.6653 44.0597 45.5749Z" fill="white"/>
<path d="M37.6391 27.4864C37.6391 27.4864 38.9485 27.9161 39.9441 29.2944C40.9398 30.6727 42.4263 31.7853 43.7175 33.0285C45.0088 34.2716 45.8999 35.2084 45.9362 35.4967C45.9725 35.785 45.3361 38.1273 44.1176 39.2443C42.8992 40.3613 41.2262 42.7936 41.1171 43.316C41.008 43.8385 41.0081 44.8474 40.9171 45.3519C40.8261 45.8564 40.4805 46.0727 40.2805 46.1447C40.0805 46.2167 39.3894 45.9826 39.0257 46.1447C38.6621 46.3069 38.3348 46.4511 38.1893 46.415C38.0437 46.3789 37.9528 46.0726 37.9528 45.9105C37.9528 45.7483 38.2619 44.5052 38.2619 44.343C38.2619 44.1808 38.0256 44.0006 38.2802 43.7844C38.5347 43.5682 39.4985 43.154 39.9532 42.4152C40.4078 41.6765 41.5535 39.1361 41.8809 38.1272C42.2082 37.1183 43.0629 35.9291 43.0629 35.9291C43.0629 35.9291 42.3354 35.3165 41.9717 35.0463C41.6081 34.776 40.026 33.713 39.3167 33.1364C38.6075 32.5599 38.1852 31.8033 37.6144 31.515C37.0436 31.2267 36.278 31.3478 35.8797 31.1367C34.3158 30.3078 35.3912 26.802 37.6391 27.4864Z" fill="white"/>
<path d="M30.8333 28.8273C30.8333 28.8273 34.816 27.4971 35.8616 26.1729C35.8616 26.1729 36.7684 26.8325 36.9196 27.0837C36.9196 27.0837 33.7519 29.0195 30.8333 28.9655V28.8273Z" fill="white"/>
<path d="M39.4711 28.7281C39.2416 28.4884 39.009 28.2887 38.79 28.1263C37.9864 27.2882 37.2952 27.2913 36.6981 26.9837C36.0161 26.6324 35.354 25.7946 34.8804 24.7812C34.5469 24.0677 34.1825 23.3013 33.9959 22.9096C33.8656 23.2565 33.7777 23.6767 33.8067 24.1596C33.9208 26.0621 35.3532 27.7091 38.9203 28.6071C39.1012 28.6526 39.2851 28.6926 39.4711 28.7281Z" fill="white"/>
<path d="M32.4343 26.4368C32.4343 26.4368 31.115 27.8149 30.8333 28.7595L30.688 28.6862C30.688 28.6862 31.0335 27.5962 31.6972 26.6053C31.6972 26.6053 32.0893 26.4573 32.4343 26.4368Z" fill="white"/>
<path d="M32.9155 32.6338C32.9155 32.6338 33.8429 32.605 34.6613 32.1635C35.4796 31.722 35.5797 31.5869 35.5797 31.5869C35.5797 31.5869 35.2679 32.7039 33.837 33.0733C32.4061 33.4427 32.9155 32.6338 32.9155 32.6338Z" fill="white"/>
<path d="M33.8701 22.6461L31.3243 24.1595C31.3243 24.1595 31.9244 24.5514 32.1835 25.281C32.2776 25.546 32.3534 25.7694 32.4024 25.9504C33.2235 25.1732 33.7399 23.6375 33.9636 22.8417C33.9046 22.7181 33.8701 22.6461 33.8701 22.6461Z" fill="white"/>
<path d="M37.6391 21.2948C38.5958 21.2948 39.3713 20.5265 39.3713 19.5787C39.3713 18.6309 38.5958 17.8626 37.6391 17.8626C36.6825 17.8626 35.907 18.6309 35.907 19.5787C35.907 20.5265 36.6825 21.2948 37.6391 21.2948Z" fill="white"/>
<path d="M36.8685 20.7881C36.8685 20.7881 37.5641 20.1114 37.5641 19.5174C37.5641 19.5174 37.3935 19.5585 37.3117 19.6125C37.3117 19.6125 37.6527 18.8018 37.6868 18.4571C37.6868 18.4571 37.5095 18.4436 37.4072 18.545C37.4072 18.545 37.4003 17.822 37.7823 17.5383C37.1685 17.5451 36.4388 17.937 36.1115 18.5585C36.1115 18.5585 36.7866 19.7679 36.8685 20.7881Z" fill="white"/>
<path d="M30.9606 18.4256C30.7438 18.6887 30.3878 19.2723 30.2969 19.6147C30.206 19.9571 30.2788 20.3174 30.1515 20.5786C30.0241 20.8399 29.8331 21.2994 29.624 21.5561C29.415 21.8128 29.174 22.029 29.2104 22.1552C29.2467 22.2813 29.3376 22.3353 29.4876 22.4074C29.6377 22.4795 29.6877 22.4929 29.7014 22.5695C29.715 22.6462 29.7331 22.6776 29.6968 22.7452C29.6605 22.8128 29.574 22.894 29.6013 22.957C29.6286 23.02 29.7558 23.083 29.8286 23.11C29.8286 23.11 29.7105 23.2182 29.7696 23.3443C29.8286 23.4705 29.9151 23.4209 29.9332 23.6056C29.9514 23.7902 29.965 24.2001 29.9969 24.3172C30.0287 24.4343 30.1446 24.7135 30.8538 24.6054C31.563 24.4973 32.4905 24.119 33.1315 23.6797C33.7726 23.2405 34.454 22.1895 34.6433 20.5515C34.9159 18.1913 32.1641 16.965 30.9606 18.4256Z" fill="white"/>
<path opacity="0.4" d="M32.6354 22.0564C32.5645 22.5582 31.9994 22.8963 31.3725 22.8094C30.7455 22.7227 30.2944 22.2456 30.3652 21.7432C30.4357 21.2415 31.0004 20.9044 31.6282 20.991C32.2548 21.0775 32.706 21.5547 32.6354 22.0564Z" fill="white"/>
<path d="M32.2166 21.7151C32.2107 21.7406 32.0996 21.7422 31.9672 21.7185C31.8333 21.6939 31.7299 21.6535 31.7344 21.6274C31.7395 21.6016 31.8511 21.5994 31.9841 21.6239C32.1167 21.6481 32.2208 21.6893 32.2166 21.7151Z" fill="white"/>
<path d="M30.8606 18.1914C30.8143 18.3109 30.615 18.8039 31.688 20.2543C32.761 21.7047 33.5064 21.8938 34.1793 21.5335C34.8522 21.1732 36.5707 21.8578 36.5707 21.8578C36.5707 21.8578 37.2162 21.3173 36.9617 19.8309C36.7071 18.3445 35.1978 17.3446 33.7157 17.2005C32.0299 17.0366 31.0242 17.7681 30.8606 18.1914Z" fill="white"/>
<path d="M34.3385 21.7002C34.3385 21.7002 33.5014 22.7261 33.8066 24.1595C34.2037 26.0242 35.8664 27.4431 39.5283 27.8079C45.6451 28.4174 53.6531 22.9569 61.1877 26.1729V20.4975C55.9835 19.2364 51.8919 21.178 48.5094 22.3376C45.1269 23.4974 40.5534 24.5063 38.3347 23.7496C36.116 22.9928 36.6247 21.9673 36.6247 21.9673L34.4614 21.4975L34.3385 21.7002Z" fill="white"/>
<path d="M30.2876 19.6537C30.2876 19.6537 29.6805 20.5506 29.6562 21.5147C29.6562 21.5147 33.0674 21.4257 33.9098 21.5518C34.7524 21.6778 36.5708 22.0652 36.5708 22.0652L36.7867 21.6733C36.7867 21.6733 32.9516 20.0979 30.2876 19.6537Z" fill="white"/>
<path d="M31.0878 17.3447C31.0878 17.3447 32.3336 15.6511 33.2883 15.1105C33.2883 15.1105 32.9155 16.1916 32.7245 16.4528L32.5155 16.3267C32.5155 16.3267 31.9426 17.1643 31.6426 17.8986L31.0878 17.3447Z" fill="white"/>
<path d="M31.7954 18.1943C31.7954 18.1943 32.9221 16.6625 33.7856 16.1736C33.7856 16.1736 33.4485 17.1514 33.2758 17.3877L33.0867 17.2735C33.0867 17.2735 32.5686 18.0311 32.2971 18.6953L31.7954 18.1943Z" fill="white"/>
<path d="M32.5031 19.0439C32.5031 19.0439 33.5108 17.6738 34.2831 17.2366C34.2831 17.2366 33.9814 18.1111 33.8269 18.3224L33.6579 18.2205C33.6579 18.2205 33.1944 18.8981 32.9516 19.492L32.5031 19.0439Z" fill="white"/>
<path d="M33.2108 19.8936C33.2108 19.8936 34.0995 18.6853 34.7807 18.2998C34.7807 18.2998 34.5147 19.0711 34.3784 19.2573L34.2294 19.1674C34.2294 19.1674 33.8207 19.7648 33.6066 20.2887L33.2108 19.8936Z" fill="white"/>
<path d="M33.9184 20.7432C33.9184 20.7432 34.6882 19.6967 35.2781 19.3627C35.2781 19.3627 35.0477 20.0307 34.9297 20.1921L34.8005 20.1141C34.8005 20.1141 34.4465 20.6316 34.2611 21.0853L33.9184 20.7432Z" fill="white"/>
<path d="M34.4431 21.4434L30.5332 18.4978C30.5332 18.4978 30.5696 17.6239 31.3061 17.0293L34.7521 21.2948L34.4431 21.4434Z" fill="white"/>
<path d="M33.743 21.7046C34.0376 21.1836 34.5025 20.8278 34.8116 21.2121C35.1207 21.5965 34.3202 23.2491 33.743 22.9748C33.522 22.8699 33.5557 22.0357 33.743 21.7046Z" fill="white"/>
<path d="M30.8162 23.1296C30.811 23.1275 30.7412 23.1595 30.6815 23.1495C30.6218 23.1393 30.0251 22.9519 29.9468 22.9198C29.8683 22.8877 29.7865 22.8606 29.7609 22.8675C29.7402 22.873 29.6648 22.9068 29.5979 22.9197C29.596 22.9325 29.5962 22.9452 29.6013 22.9571C29.6286 23.0201 29.7558 23.0831 29.8286 23.1101C29.8286 23.1101 29.8969 23.0875 29.9741 23.0875C30.0514 23.0875 30.3798 23.1428 30.5708 23.1563C30.7617 23.1698 30.8436 23.1833 30.8469 23.1563C30.8503 23.1292 30.8213 23.1318 30.8162 23.1296Z" fill="white"/>
<path d="M29.8786 22.4772C29.8786 22.4772 29.7319 22.4163 29.7797 22.3793C29.8275 22.3421 29.9264 22.3184 30.0218 22.3589C30.1173 22.3995 30.206 22.4772 30.206 22.4772C30.206 22.4772 30.0524 22.4468 29.8786 22.4772Z" fill="white"/>
<path d="M30.7605 28.7403C30.574 28.6986 28.9421 29.0196 28.7329 29.1367C28.5237 29.2538 27.8326 30.326 27.7327 31.0105C27.6327 31.695 28.0691 32.4428 28.3055 33.2355C28.5419 34.0282 28.6056 34.3256 28.5237 34.6048C28.4419 34.884 27.951 35.2353 28.0964 35.6047C28.2419 35.9741 28.6509 36.1633 28.8238 36.2263C28.9966 36.2893 30.7924 36.0101 32.62 36.2263C34.4476 36.4425 34.8568 36.6047 34.9386 36.4966C35.0205 36.3885 34.1748 32.9833 33.8066 31.9968C33.4383 31.0104 31.847 28.9835 30.7605 28.7403Z" fill="white"/>
<path d="M31.3935 36.146C31.7881 36.1537 32.2031 36.177 32.6199 36.2263C34.4475 36.4425 34.8567 36.6047 34.9385 36.4966C34.9707 36.454 34.8592 35.9007 34.6898 35.1858L29.8825 32.0902C29.8825 32.0902 30.3477 34.199 31.3935 36.146Z" fill="white"/>
<path d="M28.9702 29.0563C28.8586 29.1112 28.9238 30.7537 29.7285 31.8752C30.5332 32.9968 31.8426 34.875 33.5065 36.1317C35.1705 37.3884 35.716 37.7262 36.1252 37.6316C36.5344 37.537 37.4755 36.4155 37.4618 36.2128C37.4482 36.0101 35.7979 34.8885 34.8841 33.5103C33.9702 32.132 33.3338 30.6862 32.3427 29.7674C31.3517 28.8485 31.0216 28.7779 30.7092 28.7366C30.397 28.6953 29.3042 28.8921 28.9702 29.0563Z" fill="white"/>
<path d="M31.2334 28.8273C31.2334 29.0537 31.0542 29.2371 30.8333 29.2371C30.6125 29.2371 30.4333 29.0537 30.4333 28.8273C30.4333 28.6008 30.6125 28.4174 30.8333 28.4174C31.0542 28.4174 31.2334 28.6008 31.2334 28.8273Z" fill="white"/>
<path d="M18.7233 19.7131C18.7233 19.7131 17.6762 20.2094 17.4124 20.0247C17.1487 19.8401 16.6213 19.2094 16.5486 18.9753C16.4759 18.7411 16.7577 17.1287 17.0396 17.0926C17.3215 17.0565 17.7761 17.3447 18.0126 17.597C18.249 17.8493 18.5946 18.0835 18.6309 18.4168C18.6673 18.75 18.7703 19.577 18.7233 19.7131Z" fill="white"/>
<path d="M18.2869 14.2141C18.2869 13.6668 17.8694 13.1804 17.3184 12.9575C16.7674 13.1805 16.3499 13.6669 16.3499 14.2141C15.8466 14.302 15.5985 14.8696 16.0076 15.3087C16.0076 15.3087 16.1849 14.9844 16.4304 15.0654C16.6759 15.1465 16.976 16.3627 16.976 16.8897C16.976 17.4166 16.976 25.0918 16.976 25.0918H17.3184H17.6608C17.6608 25.0918 17.6608 17.4166 17.6608 16.8897C17.6608 16.3627 17.9608 15.1465 18.2063 15.0654C18.4519 14.9844 18.6292 15.3087 18.6292 15.3087C19.0383 14.8696 18.7903 14.302 18.2869 14.2141Z" fill="white"/>
<path d="M12.8433 34.4303L11.1172 28.4348L9.39143 34.4303L9.1815 34.371L11.1172 27.6464L13.0532 34.371L12.8433 34.4303Z" fill="white"/>
<path d="M11.1174 35.9682C12.2422 35.9682 13.1539 35.2151 13.1539 34.2864H9.08068C9.08068 35.2151 9.99264 35.9682 11.1174 35.9682Z" fill="white"/>
<path d="M15.5305 25.1245C15.5305 25.1245 15.5208 25.1286 15.5021 25.1366C15.4927 25.1405 15.4812 25.1455 15.4673 25.1514C15.4549 25.1569 15.4314 25.1652 15.4347 25.1697C15.4312 25.176 15.3692 25.2218 15.3431 25.2864C15.3315 25.3019 15.3339 25.3224 15.3247 25.3409C15.3252 25.3609 15.3185 25.3818 15.3224 25.4037C15.3244 25.4148 15.3257 25.4258 15.3263 25.4376L15.3266 25.442C15.3333 25.4633 15.3175 25.414 15.3195 25.4201L15.3201 25.4221L15.3216 25.4262L15.3275 25.4424L15.3393 25.4756C15.3472 25.4959 15.3557 25.5248 15.3635 25.5395C15.371 25.547 15.3773 25.5549 15.3824 25.5637C15.3848 25.5682 15.3873 25.5729 15.3894 25.578L15.4057 25.595C15.4167 25.6065 15.4273 25.6189 15.4376 25.6318C15.4512 25.6418 15.4648 25.6517 15.4787 25.6618C15.4855 25.6669 15.4919 25.673 15.499 25.6778L15.5233 25.6886C15.5845 25.7254 15.6616 25.736 15.7389 25.7296L15.7684 25.7259L15.7834 25.7244L15.7871 25.724L15.7891 25.7239C15.7797 25.7269 15.8125 25.7171 15.7687 25.7306L15.78 25.7267C15.8102 25.716 15.8409 25.7053 15.8717 25.6945L15.9175 25.6782L15.9394 25.6616C15.9545 25.6511 15.97 25.6419 15.9873 25.6336C16.0578 25.5718 16.131 25.4998 16.1675 25.403C16.2014 25.3089 16.2284 25.2021 16.2015 25.0955C16.1822 24.9776 16.1349 24.8721 16.058 24.7751C15.9089 24.5827 15.6481 24.4593 15.3861 24.4865C15.3533 24.4876 15.3211 24.4953 15.2885 24.5011L15.2763 24.5033L15.2734 24.5038C15.2614 24.5071 15.2862 24.4998 15.2823 24.5011L15.2748 24.5034L15.2453 24.5125L15.1857 24.531C15.1629 24.5371 15.1538 24.544 15.1402 24.5502L15.1009 24.5682C15.0741 24.5807 15.0445 24.6021 15.0159 24.6183C14.9033 24.6935 14.805 24.8003 14.7232 24.9242C14.559 25.1734 14.4577 25.4787 14.3911 25.7836C14.3252 26.09 14.2953 26.4099 14.2379 26.7269C14.2086 26.8855 14.1714 27.0456 14.1091 27.2001C14.0477 27.3542 13.9568 27.5011 13.8411 27.6187C13.8111 27.6468 13.7818 27.6753 13.7515 27.702C13.7195 27.726 13.6876 27.7496 13.6559 27.7734C13.6241 27.7965 13.5898 27.8141 13.5572 27.8342L13.5324 27.8488L13.5201 27.856L13.514 27.8596L13.4998 27.8664L13.497 27.8678L13.4499 27.8877L13.4035 27.9077C13.3857 27.9142 13.3601 27.92 13.3388 27.9259C13.2938 27.938 13.2494 27.9469 13.2077 27.9465L13.1447 27.9487C13.1237 27.9473 13.1025 27.9436 13.0818 27.9408C13.0397 27.9368 12.9997 27.9248 12.961 27.9097C12.8053 27.852 12.6883 27.7342 12.6258 27.6026C12.5628 27.4705 12.5524 27.3211 12.5909 27.1928C12.6023 27.1617 12.6153 27.1315 12.628 27.102C12.6411 27.0728 12.6614 27.0486 12.6778 27.0229C12.694 26.9963 12.7151 26.9759 12.7357 26.9559L12.7661 26.926L12.7813 26.9115L12.7851 26.908L12.7959 26.8996L12.8028 26.8949L12.8295 26.8761L12.8427 26.8668L12.8636 26.8552C12.8915 26.8402 12.9203 26.8251 12.9463 26.8179C12.9985 26.7985 13.0541 26.7922 13.1054 26.7933C13.2094 26.796 13.2963 26.8346 13.3589 26.8819C13.4223 26.9294 13.4645 26.9873 13.4873 27.0435C13.536 27.1582 13.498 27.2426 13.5023 27.239C13.4849 27.3028 13.4185 27.3404 13.3541 27.3229C13.2898 27.3055 13.2518 27.2396 13.2695 27.1761C13.2664 27.1742 13.2765 27.1703 13.2623 27.138C13.252 27.1074 13.1889 27.0423 13.1 27.044C13.0784 27.0445 13.0552 27.0466 13.0319 27.0568C13.0184 27.0602 13.0114 27.0666 13.0017 27.0706L12.9944 27.0737L12.9813 27.0833L12.9551 27.1028C12.9516 27.1046 12.9348 27.1244 12.9247 27.1343C12.9124 27.1462 12.8997 27.1583 12.8923 27.1735C12.8844 27.1882 12.8719 27.201 12.866 27.2169C12.8605 27.2329 12.854 27.2488 12.8473 27.265C12.8296 27.3317 12.8362 27.4111 12.8733 27.4841C12.9105 27.5568 12.9777 27.6187 13.0592 27.6459C13.0794 27.6533 13.1 27.6598 13.1226 27.6602C13.1336 27.6612 13.1443 27.6637 13.1557 27.6644L13.19 27.6613C13.2145 27.6619 13.2342 27.6556 13.2538 27.6503C13.2646 27.6472 13.2724 27.6478 13.2861 27.6427L13.332 27.6219L13.3785 27.6008L13.3813 27.5994C13.3922 27.594 13.3697 27.6051 13.3729 27.6034L13.3777 27.6004L13.3873 27.5943L13.4067 27.5821C13.4319 27.5653 13.4598 27.5508 13.4839 27.5321C13.5077 27.5134 13.5317 27.4946 13.5559 27.4756L13.6214 27.4115C13.7907 27.2341 13.8718 26.9701 13.9166 26.673C13.9632 26.375 13.9849 26.0514 14.0477 25.7155C14.113 25.3816 14.2115 25.0397 14.4066 24.7243C14.5044 24.568 14.6306 24.4189 14.7923 24.3039C14.8351 24.277 14.873 24.2488 14.9204 24.2244L14.9941 24.189C15.0183 24.1779 15.0458 24.1645 15.0631 24.1598L15.1222 24.1397L15.1515 24.1297L15.1589 24.1274L15.1753 24.1226L15.1798 24.1217L15.198 24.1175C15.2466 24.107 15.2952 24.0956 15.345 24.0918C15.7434 24.0412 16.1485 24.2162 16.3896 24.511C16.5118 24.655 16.5983 24.8378 16.6311 25.014C16.6388 25.0614 16.6475 25.1086 16.6525 25.1558C16.6508 25.2033 16.6492 25.2507 16.6477 25.2978C16.6484 25.3454 16.6345 25.3903 16.6242 25.4358C16.6118 25.4806 16.6058 25.5275 16.5841 25.5683C16.5201 25.7427 16.3987 25.8821 16.2657 25.9954C16.2253 26.0224 16.1836 26.0482 16.1419 26.0726L16.0793 26.1078L16.0327 26.1256C16.0023 26.1372 15.9718 26.1488 15.9419 26.16L15.9306 26.1643C15.8848 26.1786 15.9157 26.1688 15.9044 26.1721L15.9004 26.1729L15.8923 26.1744L15.8601 26.1801L15.7957 26.1907C15.6252 26.2118 15.452 26.1856 15.3116 26.1127L15.2584 26.0875C15.2417 26.0775 15.226 26.0662 15.2101 26.0553C15.1786 26.0332 15.1472 26.0115 15.1179 25.9883C15.0919 25.9614 15.066 25.9349 15.0407 25.9087C15.0282 25.8953 15.0158 25.8826 15.004 25.8685L14.9703 25.8175C14.9486 25.7833 14.9283 25.7487 14.9099 25.7145C14.8956 25.6854 14.8908 25.6675 14.8812 25.644L14.8684 25.6111L14.8622 25.595L14.8604 25.591L14.8598 25.5889C14.8611 25.5936 14.8453 25.5428 14.8517 25.5628L14.8493 25.5502C14.843 25.5169 14.8374 25.4839 14.8327 25.4515C14.8234 25.3871 14.8309 25.323 14.8358 25.2635C14.8504 25.2055 14.8581 25.1471 14.8829 25.0982C14.9057 25.0487 14.9262 25.0011 14.9572 24.9629C14.9859 24.9237 15.0118 24.8859 15.0447 24.8581C15.0778 24.8291 15.102 24.8034 15.1379 24.7807C15.1736 24.7583 15.2076 24.7392 15.2378 24.7237C15.2732 24.705 15.284 24.7046 15.2995 24.6993C15.3138 24.6949 15.3258 24.6911 15.3355 24.6881C15.355 24.6822 15.3649 24.6791 15.3649 24.6791C15.4916 24.64 15.6263 24.7101 15.6658 24.8354C15.7018 24.9521 15.6413 25.0767 15.5305 25.1245Z" fill="white"/>
<path d="M17.1456 25.9702C17.1456 25.9702 13.6131 28.5646 12.481 28.916C11.349 29.2673 10.899 28.3439 10.7807 28.1638C10.6625 27.9837 10.3079 27.7133 10.0624 27.7044C10.2352 27.4341 10.5716 27.254 10.8716 27.4251C11.008 27.1459 11.4347 27.0142 11.6627 27.1998C11.8536 27.3553 11.7991 27.612 11.7991 27.612C11.5876 27.5174 11.3558 27.612 11.3626 27.8823C11.3695 28.1525 11.5536 28.7809 12.3924 28.4363C13.2313 28.0917 16.7092 25.4365 16.7092 25.4365L17.1456 25.9702Z" fill="white"/>
<path d="M21.7936 34.4303L23.5195 28.4348L25.2455 34.4303L25.4554 34.371L23.5195 27.6464L21.5837 34.371L21.7936 34.4303Z" fill="white"/>
<path d="M23.5194 35.9682C22.3946 35.9682 21.4829 35.2151 21.4829 34.2864H25.5561C25.5561 35.2151 24.6443 35.9682 23.5194 35.9682Z" fill="white"/>
<path d="M19.1064 25.1245C19.1064 25.1245 19.1161 25.1286 19.1348 25.1366C19.1442 25.1405 19.1557 25.1455 19.1696 25.1514C19.182 25.1569 19.2055 25.1652 19.2022 25.1697C19.2057 25.176 19.2677 25.2218 19.2937 25.2864C19.3054 25.3019 19.303 25.3224 19.3122 25.3409C19.3116 25.3609 19.3184 25.3818 19.3145 25.4037C19.3125 25.4148 19.3112 25.4258 19.3105 25.4376L19.3103 25.442C19.3036 25.4633 19.3194 25.414 19.3174 25.4201L19.3168 25.4221L19.3152 25.4262L19.3093 25.4424L19.2976 25.4756C19.2897 25.4959 19.2812 25.5248 19.2733 25.5395C19.2659 25.547 19.2596 25.5549 19.2545 25.5637C19.2521 25.5682 19.2496 25.5729 19.2475 25.578L19.2312 25.595C19.2202 25.6065 19.2096 25.6189 19.1993 25.6318C19.1857 25.6418 19.1721 25.6517 19.1582 25.6618C19.1514 25.6669 19.145 25.673 19.1379 25.6778L19.1136 25.6886C19.0524 25.7254 18.9752 25.736 18.898 25.7296L18.8685 25.7259L18.8535 25.7244L18.8498 25.724L18.8478 25.7239C18.8572 25.7269 18.8243 25.7171 18.8682 25.7306L18.8569 25.7267C18.8266 25.716 18.796 25.7053 18.7652 25.6945L18.7194 25.6782L18.6974 25.6616C18.6824 25.6511 18.6669 25.6419 18.6497 25.6336C18.5792 25.5718 18.506 25.4998 18.4695 25.403C18.4356 25.3089 18.4086 25.2021 18.4355 25.0955C18.4548 24.9776 18.5021 24.8721 18.579 24.7751C18.7281 24.5827 18.9889 24.4593 19.2509 24.4865C19.2837 24.4876 19.3159 24.4953 19.3485 24.5011L19.3607 24.5033L19.3636 24.5038C19.3756 24.5071 19.3508 24.4998 19.3547 24.5011L19.3622 24.5034L19.3917 24.5125L19.4513 24.531C19.4741 24.5371 19.4832 24.544 19.4968 24.5502L19.5361 24.5682C19.5629 24.5807 19.5925 24.6021 19.6211 24.6183C19.7337 24.6935 19.832 24.8003 19.9138 24.9242C20.078 25.1734 20.1793 25.4787 20.2459 25.7836C20.3118 26.09 20.3417 26.4099 20.399 26.7269C20.4284 26.8855 20.4656 27.0456 20.5279 27.2001C20.5893 27.3542 20.6802 27.5011 20.7959 27.6187C20.8259 27.6468 20.8552 27.6753 20.8855 27.702C20.9175 27.726 20.9494 27.7496 20.981 27.7734C21.0129 27.7965 21.0472 27.8141 21.0798 27.8342L21.1046 27.8488L21.1169 27.856L21.123 27.8596L21.1372 27.8664L21.14 27.8678L21.1871 27.8877L21.2335 27.9077C21.2513 27.9142 21.2768 27.92 21.2982 27.9259C21.3432 27.938 21.3876 27.9469 21.4293 27.9465L21.4923 27.9487C21.5133 27.9473 21.5345 27.9436 21.5552 27.9408C21.5973 27.9368 21.6372 27.9248 21.676 27.9097C21.8317 27.852 21.9487 27.7342 22.0112 27.6026C22.0742 27.4705 22.0846 27.3211 22.0461 27.1928C22.0346 27.1617 22.0216 27.1315 22.009 27.102C21.9959 27.0728 21.9756 27.0486 21.9592 27.0229C21.943 26.9963 21.9219 26.9759 21.9013 26.9559L21.8709 26.926L21.8557 26.9115L21.8519 26.908L21.8411 26.8996L21.8342 26.8949L21.8075 26.8761L21.7943 26.8668L21.7734 26.8552C21.7455 26.8402 21.7167 26.8251 21.6907 26.8179C21.6384 26.7985 21.5829 26.7922 21.5316 26.7933C21.4276 26.796 21.3407 26.8346 21.2781 26.8819C21.2147 26.9294 21.1725 26.9873 21.1497 27.0435C21.101 27.1582 21.139 27.2426 21.1347 27.239C21.1521 27.3028 21.2186 27.3404 21.2829 27.3229C21.3472 27.3055 21.3852 27.2396 21.3675 27.1761C21.3706 27.1742 21.3605 27.1703 21.3747 27.138C21.385 27.1074 21.448 27.0423 21.537 27.044C21.5586 27.0445 21.5818 27.0466 21.6051 27.0568C21.6186 27.0602 21.6256 27.0666 21.6353 27.0706L21.6426 27.0737L21.6557 27.0833L21.6819 27.1028C21.6854 27.1046 21.7022 27.1244 21.7123 27.1343C21.7246 27.1462 21.7373 27.1583 21.7447 27.1735C21.7526 27.1882 21.7651 27.201 21.771 27.2169C21.7765 27.2329 21.783 27.2488 21.7897 27.265C21.8074 27.3317 21.8008 27.4111 21.7637 27.4841C21.7265 27.5568 21.6593 27.6187 21.5778 27.6459C21.5576 27.6533 21.537 27.6598 21.5144 27.6602C21.5034 27.6612 21.4927 27.6637 21.4813 27.6644L21.447 27.6613C21.4225 27.6619 21.4028 27.6556 21.3832 27.6503C21.3724 27.6472 21.3646 27.6478 21.3509 27.6427L21.305 27.6219L21.2585 27.6008L21.2557 27.5994C21.2448 27.594 21.2671 27.6051 21.2641 27.6034L21.2593 27.6004L21.2497 27.5943L21.2303 27.5821C21.2049 27.5653 21.1772 27.5508 21.1531 27.5321C21.1293 27.5134 21.1053 27.4946 21.0811 27.4756L21.0156 27.4115C20.8463 27.2341 20.7652 26.9701 20.7204 26.673C20.6738 26.375 20.6521 26.0514 20.5893 25.7155C20.524 25.3816 20.4255 25.0397 20.2304 24.7243C20.1326 24.568 20.0064 24.4189 19.8446 24.3039C19.8018 24.277 19.764 24.2488 19.7166 24.2244L19.6429 24.189C19.6187 24.1779 19.5912 24.1645 19.5739 24.1598L19.5148 24.1397L19.4855 24.1297L19.4781 24.1274L19.4617 24.1226L19.4572 24.1217L19.439 24.1175C19.3904 24.107 19.3418 24.0956 19.292 24.0918C18.8936 24.0412 18.4885 24.2162 18.2474 24.511C18.1252 24.655 18.0387 24.8378 18.0059 25.014C17.9982 25.0614 17.9895 25.1086 17.9845 25.1558C17.9861 25.2033 17.9878 25.2507 17.9893 25.2978C17.9885 25.3454 18.0025 25.3903 18.0128 25.4358C18.0252 25.4806 18.0312 25.5275 18.0529 25.5683C18.1169 25.7427 18.2383 25.8821 18.3713 25.9954C18.4117 26.0224 18.4534 26.0482 18.495 26.0726L18.5577 26.1078L18.6043 26.1256C18.6347 26.1372 18.6652 26.1488 18.695 26.16L18.7064 26.1643C18.7522 26.1786 18.7213 26.1688 18.7326 26.1721L18.7366 26.1729L18.7447 26.1744L18.7769 26.1801L18.8413 26.1907C19.0118 26.2118 19.185 26.1856 19.3254 26.1127L19.3786 26.0875C19.3953 26.0775 19.411 26.0662 19.4269 26.0553C19.4584 26.0332 19.4898 26.0115 19.5191 25.9883C19.5451 25.9614 19.571 25.9349 19.5963 25.9087C19.6087 25.8953 19.6212 25.8826 19.633 25.8685L19.6667 25.8175C19.6884 25.7833 19.7087 25.7487 19.7271 25.7145C19.7414 25.6854 19.7462 25.6675 19.7558 25.644L19.7686 25.6111L19.7748 25.595L19.7766 25.591L19.7772 25.5889C19.7759 25.5936 19.7917 25.5428 19.7853 25.5628L19.7877 25.5502C19.794 25.5169 19.7996 25.4839 19.8043 25.4515C19.8136 25.3871 19.8061 25.323 19.8012 25.2635C19.7866 25.2055 19.7789 25.1471 19.7541 25.0982C19.7313 25.0487 19.7108 25.0011 19.6798 24.9629C19.6511 24.9237 19.6252 24.8859 19.5923 24.8581C19.5592 24.8291 19.535 24.8034 19.4991 24.7807C19.4634 24.7583 19.4294 24.7392 19.3991 24.7237C19.3638 24.705 19.353 24.7046 19.3376 24.6993C19.3233 24.6949 19.3113 24.6911 19.3016 24.6881C19.2821 24.6822 19.2721 24.6791 19.2721 24.6791C19.1454 24.64 19.0107 24.7101 18.9712 24.8354C18.9351 24.9521 18.9955 25.0767 19.1064 25.1245Z" fill="white"/>
<path d="M17.4912 25.9702C17.4912 25.9702 21.0237 28.5646 22.1558 28.916C23.2878 29.2673 23.7378 28.3439 23.856 28.1638C23.9743 27.9837 24.3289 27.7133 24.5744 27.7044C24.4016 27.4341 24.0652 27.254 23.7651 27.4251C23.6288 27.1459 23.2021 27.0142 22.9741 27.1998C22.7831 27.3553 22.8377 27.612 22.8377 27.612C23.0492 27.5174 23.281 27.612 23.2741 27.8823C23.2673 28.1525 23.0832 28.7809 22.2444 28.4363C21.4055 28.0917 17.9277 25.4365 17.9277 25.4365L17.4912 25.9702Z" fill="white"/>
<path d="M18.0806 25.4702C18.0806 25.8872 17.7393 26.2253 17.3185 26.2253C16.8977 26.2253 16.5564 25.8872 16.5564 25.4702C16.5564 25.0533 16.8977 24.7151 17.3185 24.7151C17.7393 24.7151 18.0806 25.0533 18.0806 25.4702Z" fill="white"/>
<path d="M18.2855 17.5428C18.2767 17.6724 18.0673 18.8671 17.9218 19.0562C17.7762 19.2454 17.6671 19.2544 17.4126 19.2184C17.158 19.1824 16.5488 19.1193 16.4488 18.9481C16.3487 18.777 16.3351 17.1724 16.3624 16.9472C16.3896 16.722 16.7443 16.5058 16.9079 16.5328C17.0716 16.5599 17.6983 16.7891 17.9218 17.0293C18.1452 17.2695 18.3037 17.2726 18.2855 17.5428Z" fill="white"/>
<path d="M18.7233 19.7131C18.7333 19.4886 18.9763 18.8222 19.0764 18.4979C19.1765 18.1736 19.1946 18.1284 19.0764 17.8942C18.9582 17.6601 18.6764 17.4889 18.5491 17.3448C18.4217 17.2007 18.1399 17.2637 18.0671 17.2907C17.9943 17.3177 17.7307 17.7503 17.7125 17.8493C17.6943 17.9483 17.6033 18.3876 17.5852 18.4833C17.5671 18.579 17.7672 18.7411 17.9762 18.633C18.1853 18.5249 18.2398 18.3447 18.2398 18.3447C18.2398 18.3447 18.0035 18.8221 18.0944 19.1104C18.1854 19.3986 18.7233 19.7131 18.7233 19.7131Z" fill="white"/>
</g>
<path d="M27.0036 61.4583C26.8171 61.4583 26.6331 61.4142 26.4611 61.3285L25.4317 60.8092C20.1177 58.1195 2.7757 48.0933 2.7757 31.9039L2.78055 18.8084C2.78055 14.0488 5.78149 9.84283 10.2502 8.34613L26.6234 2.85413C26.8704 2.77084 27.1393 2.77084 27.3839 2.85413L43.7546 8.34368C48.2234 9.84283 51.2243 14.0488 51.2243 18.8059L51.217 31.9015C51.217 50.2686 33.846 58.7662 28.5223 60.9341L27.4541 61.3677C27.3088 61.4265 27.1538 61.4559 27.0012 61.4559L27.0036 61.4583ZM27.0036 5.30863L11.0132 10.6708C7.53749 11.8368 5.20504 15.107 5.20504 18.8084L5.20019 31.9039C5.20019 46.6873 21.5152 56.0913 26.5168 58.6193L27.0593 58.8936L27.6213 58.6658C32.5889 56.6449 48.7974 48.74 48.7974 31.9064L48.8047 18.8108C48.8047 15.1095 46.4698 11.8393 42.9965 10.6732L27.0036 5.30863Z" fill="white" stroke="black"/>
<path d="M27 63.989C26.7928 63.989 26.5882 63.941 26.3971 63.8477L25.2532 63.2823C19.3478 60.3543 0.0760422 49.4397 0.0760422 31.8157L0.0814253 17.5597C0.0814253 12.3783 3.4163 7.79966 8.38229 6.17032L26.5774 0.191657C26.852 0.100991 27.1507 0.100991 27.4226 0.191657L45.615 6.16766C50.581 7.79966 53.9159 12.3783 53.9159 17.557L53.9078 31.813C53.9078 51.8077 34.6037 61.0583 28.6876 63.4183L27.5006 63.8903C27.3391 63.9543 27.1669 63.9863 26.9973 63.9863L27 63.989ZM27 2.86366L9.23014 8.70099C5.36771 9.97032 2.77571 13.5303 2.77571 17.5597L2.77032 31.8157C2.77032 47.909 20.9009 58.1463 26.459 60.8983L27.0619 61.197L27.6864 60.949C33.2068 58.749 51.2189 50.1437 51.2189 31.8183L51.227 17.5623C51.227 13.533 48.6323 9.97299 44.7726 8.70366L27 2.86366Z" fill="black"/>
<path d="M27 63.989C26.7928 63.989 26.5882 63.941 26.3971 63.8477L25.2532 63.2823C19.3478 60.3543 0.0760422 49.4397 0.0760422 31.8157L0.0814253 17.5597C0.0814253 12.3783 3.4163 7.79966 8.38229 6.17032L26.5774 0.191657C26.852 0.100991 27.1507 0.100991 27.4226 0.191657L45.615 6.16766C50.581 7.79966 53.9159 12.3783 53.9159 17.557L53.9078 31.813C53.9078 51.8077 34.6037 61.0583 28.6876 63.4183L27.5006 63.8903C27.3391 63.9543 27.1669 63.9863 26.9973 63.9863L27 63.989ZM27 2.86366L9.23013 8.70099C5.36771 9.97032 2.77571 13.5303 2.77571 17.5597L2.77032 31.8157C2.77032 47.909 20.9009 58.1463 26.459 60.8983L27.0619 61.197L27.6864 60.949C33.2068 58.749 51.2189 50.1437 51.2189 31.8183L51.227 17.5623C51.227 13.533 48.6323 9.97299 44.7726 8.70366L27 2.86366Z" fill="black"/>
</g>
<defs>
<clipPath id="clip0_8_555">
<rect width="54" height="64" fill="white"/>
</clipPath>
</defs>
</svg>
